<svg width="114" height="114" viewBox="0 0 114 114" fill="none" xmlns="http://www.w3.org/2000/svg">
<path d="M0 14.25C0 6.37994 6.37994 0 14.25 0H99.75C107.62 0 114 6.37994 114 14.25V99.75C114 107.62 107.62 114 99.75 114H14.25C6.37994 114 0 107.62 0 99.75V14.25Z" fill="#0452F4"/>
<path d="M72.4808 57.9534C72.4808 72.7741 60.4662 84.7888 45.6454 84.7888C30.8246 84.7888 18.81 72.7741 18.81 57.9534C18.81 43.1326 30.8246 31.118 45.6454 31.118C60.4662 31.118 72.4808 43.1326 72.4808 57.9534Z" fill="#00172E"/>
<path d="M54.1863 62.9689C47.239 75.0018 37.7053 82.5038 32.8921 79.7249C28.0789 76.946 29.8089 64.9386 36.7562 52.9056C43.7034 40.8726 53.2371 33.3707 58.0503 36.1496C62.8635 38.9285 61.1335 50.9359 54.1863 62.9689Z" fill="#0452F4"/>
<path d="M45.7016 47.9145C45.7637 47.6105 46.198 47.6105 46.2601 47.9145L47.9356 56.1119C47.9584 56.2238 48.0459 56.3112 48.1577 56.3341L56.3552 58.0096C56.6591 58.0717 56.6591 58.5059 56.3552 58.568L48.1577 60.2435C48.0459 60.2664 47.9584 60.3538 47.9356 60.4657L46.2601 68.6632C46.198 68.9671 45.7637 68.9671 45.7016 68.6632L44.0261 60.4657C44.0033 60.3538 43.9158 60.2664 43.804 60.2435L35.6065 58.568C35.3026 58.5059 35.3026 58.0717 35.6065 58.0096L43.804 56.3341C43.9158 56.3112 44.0033 56.2238 44.0261 56.1119L45.7016 47.9145Z" fill="#00172E"/>
<path d="M53.696 25.08C59.9236 25.08 65.896 28.4374 70.2996 34.4136C74.7031 40.3899 77.177 48.4954 77.177 56.947C77.177 65.3987 74.7031 73.5042 70.2996 79.4804C65.896 85.4567 59.9236 88.8141 53.696 88.8141V25.08Z" fill="#00172E"/>
<path d="M74.8289 33.1306C77.9427 33.1306 80.9289 35.7812 83.1307 40.4993C85.3324 45.2174 86.5694 51.6164 86.5694 58.2888C86.5694 64.9612 85.3324 71.3603 83.1307 76.0783C80.9289 80.7964 77.9427 83.447 74.8289 83.447V33.1306Z" fill="#00172E"/>
<path d="M87.9111 38.4977C89.6904 38.4977 91.3969 40.4415 92.655 43.9014C93.9132 47.3613 94.62 52.054 94.62 56.947C94.62 61.8401 93.9132 66.5328 92.655 69.9927C91.3969 73.4526 89.6904 75.3964 87.9111 75.3964V38.4977Z" fill="#00172E"/>
</svg>
