<svg width="200" height="60" viewBox="0 0 200 60" fill="none" xmlns="http://www.w3.org/2000/svg">
<path d="M89.4837 25.3892C89.0445 24.5801 88.4088 23.9675 87.5765 23.5513C86.7674 23.1121 85.808 22.8925 84.6984 22.8925C82.7796 22.8925 81.2423 23.5282 80.0864 24.7997C78.9305 26.0481 78.3525 27.7241 78.3525 29.8278C78.3525 32.0702 78.9536 33.8272 80.1557 35.0986C81.381 36.347 83.057 36.9712 85.1838 36.9712C86.6403 36.9712 87.8655 36.6013 88.8596 35.8615C89.8767 35.1218 90.6165 34.0584 91.0789 32.6713H83.554V28.302H96.4537V33.8156C96.0145 35.2951 95.2632 36.6707 94.1997 37.9421C93.1594 39.2136 91.8302 40.2423 90.2119 41.0283C88.5937 41.8144 86.7674 42.2074 84.733 42.2074C82.3288 42.2074 80.1788 41.6872 78.2832 40.6469C76.4107 39.5835 74.9427 38.1155 73.8793 36.243C72.839 34.3704 72.3188 32.232 72.3188 29.8278C72.3188 27.4236 72.839 25.2852 73.8793 23.4126C74.9427 21.517 76.4107 20.049 78.2832 19.0087C80.1557 17.9453 82.2941 17.4136 84.6984 17.4136C87.6112 17.4136 90.0617 18.1187 92.0498 19.5289C94.061 20.939 95.3903 22.8925 96.0376 25.3892H89.4837Z" fill="#0452F4"/>
<path d="M104.628 25.9094C105.321 24.8459 106.188 24.0137 107.228 23.4126C108.269 22.7885 109.425 22.4764 110.696 22.4764V28.7528H109.066C107.587 28.7528 106.477 29.0765 105.737 29.7238C104.998 30.348 104.628 31.4576 104.628 33.0527V42.034H98.6979V22.6844H104.628V25.9094Z" fill="#0452F4"/>
<path d="M121.298 42.3114C119.402 42.3114 117.692 41.9068 116.166 41.0977C114.663 40.2886 113.473 39.1327 112.594 37.63C111.739 36.1274 111.311 34.3704 111.311 32.3592C111.311 30.3711 111.75 28.6257 112.629 27.123C113.507 25.5973 114.709 24.4298 116.235 23.6207C117.761 22.8116 119.472 22.407 121.367 22.407C123.263 22.407 124.974 22.8116 126.499 23.6207C128.025 24.4298 129.227 25.5973 130.106 27.123C130.984 28.6257 131.423 30.3711 131.423 32.3592C131.423 34.3473 130.973 36.1043 130.071 37.63C129.193 39.1327 127.979 40.2886 126.43 41.0977C124.904 41.9068 123.194 42.3114 121.298 42.3114ZM121.298 37.1792C122.431 37.1792 123.39 36.7631 124.176 35.9309C124.985 35.0986 125.39 33.9081 125.39 32.3592C125.39 30.8103 124.997 29.6197 124.211 28.7875C123.448 27.9553 122.5 27.5392 121.367 27.5392C120.211 27.5392 119.252 27.9553 118.489 28.7875C117.726 29.5966 117.345 30.7872 117.345 32.3592C117.345 33.9081 117.715 35.0986 118.454 35.9309C119.217 36.7631 120.165 37.1792 121.298 37.1792Z" fill="#0452F4"/>
<path d="M142.337 42.3114C140.441 42.3114 138.73 41.9068 137.205 41.0977C135.702 40.2886 134.511 39.1327 133.633 37.63C132.778 36.1274 132.35 34.3704 132.35 32.3592C132.35 30.3711 132.789 28.6257 133.668 27.123C134.546 25.5973 135.748 24.4298 137.274 23.6207C138.8 22.8116 140.511 22.407 142.406 22.407C144.302 22.407 146.013 22.8116 147.538 23.6207C149.064 24.4298 150.266 25.5973 151.145 27.123C152.023 28.6257 152.462 30.3711 152.462 32.3592C152.462 34.3473 152.012 36.1043 151.11 37.63C150.232 39.1327 149.018 40.2886 147.469 41.0977C145.943 41.9068 144.232 42.3114 142.337 42.3114ZM142.337 37.1792C143.47 37.1792 144.429 36.7631 145.215 35.9309C146.024 35.0986 146.429 33.9081 146.429 32.3592C146.429 30.8103 146.036 29.6197 145.25 28.7875C144.487 27.9553 143.539 27.5392 142.406 27.5392C141.25 27.5392 140.291 27.9553 139.528 28.7875C138.765 29.5966 138.384 30.7872 138.384 32.3592C138.384 33.9081 138.754 35.0986 139.493 35.9309C140.256 36.7631 141.204 37.1792 142.337 37.1792Z" fill="#0452F4"/>
<path d="M163.272 36.4857L167.468 22.6844H173.779L166.913 42.034H159.596L152.73 22.6844H159.076L163.272 36.4857Z" fill="#0452F4"/>
<path d="M195 22.6844L182.863 51.2233H176.483L180.921 41.3751L173.05 22.6844H179.673L184.146 34.7866L188.585 22.6844H195Z" fill="#0452F4"/>
<path d="M5 8.22429C5 4.23442 8.23442 1 12.2243 1H55.57C59.5599 1 62.7943 4.23442 62.7943 8.22429V51.57C62.7943 55.5599 59.5599 58.7943 55.57 58.7943H12.2243C8.23442 58.7943 5 55.5599 5 51.57V8.22429Z" fill="#0452F4"/>
<path d="M41.7454 30.3805C41.7454 37.8941 35.6544 43.9852 28.1407 43.9852C20.6271 43.9852 14.5361 37.8941 14.5361 30.3805C14.5361 22.8668 20.6271 16.7758 28.1407 16.7758C35.6544 16.7758 41.7454 22.8668 41.7454 30.3805Z" fill="#00172E"/>
<path d="M32.4707 32.9232C28.9487 39.0235 24.1154 42.8267 21.6752 41.4179C19.2351 40.0091 20.1122 33.9218 23.6342 27.8214C27.1562 21.7211 31.9895 17.9179 34.4296 19.3267C36.8698 20.7355 35.9927 26.8229 32.4707 32.9232Z" fill="#0452F4"/>
<path d="M28.1692 25.2911C28.2007 25.137 28.4209 25.137 28.4524 25.2911L29.3018 29.4469C29.3134 29.5036 29.3577 29.548 29.4144 29.5596L33.5703 30.409C33.7243 30.4405 33.7243 30.6606 33.5703 30.6921L29.4144 31.5415C29.3577 31.5531 29.3134 31.5974 29.3018 31.6542L28.4524 35.81C28.4209 35.9641 28.2007 35.9641 28.1692 35.81L27.3198 31.6542C27.3082 31.5974 27.2639 31.5531 27.2072 31.5415L23.0513 30.6921C22.8973 30.6606 22.8973 30.4405 23.0513 30.409L27.2072 29.5596C27.2639 29.548 27.3082 29.5036 27.3198 29.4469L28.1692 25.2911Z" fill="#00172E"/>
<path d="M32.2221 13.7148C35.3793 13.7148 38.4072 15.4168 40.6396 18.4466C42.8721 21.4764 44.1262 25.5856 44.1262 29.8703C44.1262 34.155 42.8721 38.2643 40.6396 41.294C38.4072 44.3238 35.3793 46.0259 32.2221 46.0259V13.7148Z" fill="#00172E"/>
<path d="M42.9358 17.7962C44.5144 17.7962 46.0283 19.1399 47.1446 21.5318C48.2608 23.9237 48.8879 27.1679 48.8879 30.5505C48.8879 33.9332 48.2608 37.1773 47.1446 39.5693C46.0283 41.9612 44.5144 43.3049 42.9358 43.3049V17.7962Z" fill="#00172E"/>
<path d="M49.5681 20.5171C50.4702 20.5171 51.3353 21.5025 51.9731 23.2566C52.6109 25.0107 52.9693 27.3897 52.9693 29.8703C52.9693 32.3509 52.6109 34.73 51.9731 36.484C51.3353 38.2381 50.4702 39.2235 49.5681 39.2235V20.5171Z" fill="#00172E"/>
</svg>
